<svg width="487" height="492" viewBox="0 0 487 492" fill="none" xmlns="http://www.w3.org/2000/svg" xmlns:xlink="http://www.w3.org/1999/xlink" id="top_level">
  <defs>
    <style type="text/css">
      svg {
        font-family: Arial, sans-serif;
        overflow: visible;
      }

      rect {
        shape-rendering: crispEdges;
      }

      .title {
        fill: #444;
        font-size: 24px;
      }

      .bracket-line {
        fill: none;
        stroke: #666;
        stroke-width: 2px;
      }

      
      .match--base-background {
        fill: #494554;
      }

      .match--wrapper-background {
        fill-opacity: 0;
      }

      .match--identifier {
        fill: #777;
        font-size: 10px;
      }

      .match--seed {
        fill: #fff;
        font-size: 10px;
        letter-spacing: -1px;
        font-weight: bold; 
      }

      .match--seed-background {
        fill: #35333d;
      }

      .match--player-score-background {
        fill: #d3d3d3;
      }

      .match--player-score-background.-winner {
        fill: #F68800;
      }

      .match--player-name {
        fill: #fff;
        font-size: 12px;
      }

      .match--player-name.-placeholder {
        font-style: italic;
        font-size: 11px;
      }

      .match--player-score {
        fill: #111;
        font-size: 12px;
      }

      .match--player-background {
        fill: #494554;
      }

      .match--player-divider {
        stroke: #24222a;
        stroke-width: 1px;
      }

      .match--station-background {
        fill: #f3f3f3;
        opacity: 0.5;
      }

      .match--station {
        font-size: 11px;
        fill: #222;
      }

      .round-label {
        cursor: pointer;
      }

      .round-label rect {
        fill: #494554;
      }

      .round-label text {
        fill: #fff;
        font-size: 12px;
      }

      text.round-label--best-of {
        fill: #369;
        font-weight: bold;
      }

      .round-header-label text {
        fill: #444;
        font-size: 16px;
        font-weight: bold;
      }

      .round-header-label text.round-header-label--best-of {
        fill: #369;
        font-size: 12px;
      }

      @media only print {
        svg#top_level {
          width: 100%;
          height: 100%;
        }
      }
    </style>
  </defs>
  <svg>
    <svg class="tournament-bracket -for-print" width="1692" height="1042" x="0" y="0"><g><g class="rounds" transform="translate(0,0)"><svg class="round" x="0"><g class="round-label" data-toggle="" data-href="/tournaments/13816190/rounds/new_or_edit?number=1&amp;title=Round+of+24"><rect width="243" height="25"/><text x="122" y="17" width="243" height="15" text-anchor="middle">Round of 24</text></g></svg><svg class="round" x="244"><g class="round-label" data-toggle="" data-href="/tournaments/13816190/rounds/new_or_edit?number=2&amp;title=Round+of+16"><rect width="243" height="25"/><text x="122" y="17" width="243" height="15" text-anchor="middle">Round of 16</text></g></svg></g><g transform="translate(0 440)" class="bracket-line-container"><path d="M 228 26.000000000000057 L 236 26.000000000000057 L 236 1 L 244 1" class="bracket-line" data-line-length="41.00000000000006"/></g><g transform="translate(0 386)" class="bracket-line-container"><path d="M 228 26 L 236 26 L 236 1 L 244 1" class="bracket-line" data-line-length="41"/></g><g transform="translate(0 332)" class="bracket-line-container"><path d="M 228 26 L 236 26 L 236 1 L 244 1" class="bracket-line" data-line-length="41"/></g><g transform="translate(0 278)" class="bracket-line-container"><path d="M 228 26 L 236 26 L 236 1 L 244 1" class="bracket-line" data-line-length="41"/></g><g transform="translate(0 224)" class="bracket-line-container"><path d="M 228 26 L 236 26 L 236 1 L 244 1" class="bracket-line" data-line-length="41"/></g><g transform="translate(0 170)" class="bracket-line-container"><path d="M 228 26 L 236 26 L 236 1 L 244 1" class="bracket-line" data-line-length="41"/></g><g transform="translate(0 116)" class="bracket-line-container"><path d="M 228 25.999999999999986 L 236 25.999999999999986 L 236 1 L 244 1" class="bracket-line" data-line-length="40.999999999999986"/></g><g transform="translate(0 62)" class="bracket-line-container"><path d="M 228 26 L 236 26 L 236 1 L 244 1" class="bracket-line" data-line-length="41"/></g><g transform="translate(244 413)" class="match -pending " data-identifier="16"><defs><clipPath id="match-clippath-16"><rect x="26" y="5" width="200" height="45" rx="3" ry="3"/></clipPath></defs><text x="11" y="31" width="24" height="10" text-anchor="middle" class="match--identifier">16</text><rect x="24" y="3" width="204" height="49" rx="3" ry="3" class="match--wrapper-background "/><rect x="26" y="5" width="200" height="45" rx="3" ry="3" class="match--base-background"/><g clip-path="url(#match-clippath-16)"><svg x="0" y="5" class="match--player" data-participant-id="218027764"><title>Seed 6</title><defs><clipPath id="clipPath7326097"><rect x="50" y="0" width="143" height="22"/></clipPath><clipPath id="portraitClipPath7326097"><path/></clipPath></defs><path d="M 50 0 h 147 v 22 h -147 Z" class="match--player-background"/><path d="M 26 0 h 24 v 22 h -24 Z" class="match--seed-background"/><text x="38" y="14" width="10" height="12" text-anchor="middle" class="match--seed">6</text><text clip-path="url(#clipPath7326097)" x="55" y="15" width="147" height="12" text-anchor="start" class="match--player-name ">Seed 6</text></svg><svg x="0" y="28" class="match--player"><title/><defs><clipPath id="clipPath172218"><rect x="50" y="0" width="143" height="22"/></clipPath><clipPath id="portraitClipPath172218"><path/></clipPath></defs><path d="M 50 0 h 147 v 22 h -147 Z" class="match--player-background -empty"/><path d="M 26 0 h 24 v 22 h -24 Z" class="match--seed-background"/><text x="38" y="14" width="10" height="12" text-anchor="middle" class="match--seed"/><line x1="26" y1="-0.5" x2="226" y2="-0.5" class="match--player-divider"/></svg></g></g><g transform="translate(244 359)" class="match -pending " data-identifier="15"><defs><clipPath id="match-clippath-15"><rect x="26" y="5" width="200" height="45" rx="3" ry="3"/></clipPath></defs><text x="11" y="31" width="24" height="10" text-anchor="middle" class="match--identifier">15</text><rect x="24" y="3" width="204" height="49" rx="3" ry="3" class="match--wrapper-background "/><rect x="26" y="5" width="200" height="45" rx="3" ry="3" class="match--base-background"/><g clip-path="url(#match-clippath-15)"><svg x="0" y="5" class="match--player" data-participant-id="218027761"><title>Seed 3</title><defs><clipPath id="clipPath5476393"><rect x="50" y="0" width="143" height="22"/></clipPath><clipPath id="portraitClipPath5476393"><path/></clipPath></defs><path d="M 50 0 h 147 v 22 h -147 Z" class="match--player-background"/><path d="M 26 0 h 24 v 22 h -24 Z" class="match--seed-background"/><text x="38" y="14" width="10" height="12" text-anchor="middle" class="match--seed">3</text><text clip-path="url(#clipPath5476393)" x="55" y="15" width="147" height="12" text-anchor="start" class="match--player-name ">Seed 3</text></svg><svg x="0" y="28" class="match--player"><title/><defs><clipPath id="clipPath6332358"><rect x="50" y="0" width="143" height="22"/></clipPath><clipPath id="portraitClipPath6332358"><path/></clipPath></defs><path d="M 50 0 h 147 v 22 h -147 Z" class="match--player-background -empty"/><path d="M 26 0 h 24 v 22 h -24 Z" class="match--seed-background"/><text x="38" y="14" width="10" height="12" text-anchor="middle" class="match--seed"/><line x1="26" y1="-0.5" x2="226" y2="-0.5" class="match--player-divider"/></svg></g></g><g transform="translate(244 305)" class="match -pending " data-identifier="14"><defs><clipPath id="match-clippath-14"><rect x="26" y="5" width="200" height="45" rx="3" ry="3"/></clipPath></defs><text x="11" y="31" width="24" height="10" text-anchor="middle" class="match--identifier">14</text><rect x="24" y="3" width="204" height="49" rx="3" ry="3" class="match--wrapper-background "/><rect x="26" y="5" width="200" height="45" rx="3" ry="3" class="match--base-background"/><g clip-path="url(#match-clippath-14)"><svg x="0" y="5" class="match--player" data-participant-id="218027765"><title>Seed 7</title><defs><clipPath id="clipPath679769"><rect x="50" y="0" width="143" height="22"/></clipPath><clipPath id="portraitClipPath679769"><path/></clipPath></defs><path d="M 50 0 h 147 v 22 h -147 Z" class="match--player-background"/><path d="M 26 0 h 24 v 22 h -24 Z" class="match--seed-background"/><text x="38" y="14" width="10" height="12" text-anchor="middle" class="match--seed">7</text><text clip-path="url(#clipPath679769)" x="55" y="15" width="147" height="12" text-anchor="start" class="match--player-name ">Seed 7</text></svg><svg x="0" y="28" class="match--player"><title/><defs><clipPath id="clipPath3101068"><rect x="50" y="0" width="143" height="22"/></clipPath><clipPath id="portraitClipPath3101068"><path/></clipPath></defs><path d="M 50 0 h 147 v 22 h -147 Z" class="match--player-background -empty"/><path d="M 26 0 h 24 v 22 h -24 Z" class="match--seed-background"/><text x="38" y="14" width="10" height="12" text-anchor="middle" class="match--seed"/><line x1="26" y1="-0.5" x2="226" y2="-0.5" class="match--player-divider"/></svg></g></g><g transform="translate(244 251)" class="match -pending " data-identifier="13"><defs><clipPath id="match-clippath-13"><rect x="26" y="5" width="200" height="45" rx="3" ry="3"/></clipPath></defs><text x="11" y="31" width="24" height="10" text-anchor="middle" class="match--identifier">13</text><rect x="24" y="3" width="204" height="49" rx="3" ry="3" class="match--wrapper-background "/><rect x="26" y="5" width="200" height="45" rx="3" ry="3" class="match--base-background"/><g clip-path="url(#match-clippath-13)"><svg x="0" y="5" class="match--player" data-participant-id="218027760"><title>Seed 2</title><defs><clipPath id="clipPath9644742"><rect x="50" y="0" width="143" height="22"/></clipPath><clipPath id="portraitClipPath9644742"><path/></clipPath></defs><path d="M 50 0 h 147 v 22 h -147 Z" class="match--player-background"/><path d="M 26 0 h 24 v 22 h -24 Z" class="match--seed-background"/><text x="38" y="14" width="10" height="12" text-anchor="middle" class="match--seed">2</text><text clip-path="url(#clipPath9644742)" x="55" y="15" width="147" height="12" text-anchor="start" class="match--player-name ">Seed 2</text></svg><svg x="0" y="28" class="match--player"><title/><defs><clipPath id="clipPath750704"><rect x="50" y="0" width="143" height="22"/></clipPath><clipPath id="portraitClipPath750704"><path/></clipPath></defs><path d="M 50 0 h 147 v 22 h -147 Z" class="match--player-background -empty"/><path d="M 26 0 h 24 v 22 h -24 Z" class="match--seed-background"/><text x="38" y="14" width="10" height="12" text-anchor="middle" class="match--seed"/><line x1="26" y1="-0.5" x2="226" y2="-0.5" class="match--player-divider"/></svg></g></g><g transform="translate(244 197)" class="match -pending " data-identifier="12"><defs><clipPath id="match-clippath-12"><rect x="26" y="5" width="200" height="45" rx="3" ry="3"/></clipPath></defs><text x="11" y="31" width="24" height="10" text-anchor="middle" class="match--identifier">12</text><rect x="24" y="3" width="204" height="49" rx="3" ry="3" class="match--wrapper-background "/><rect x="26" y="5" width="200" height="45" rx="3" ry="3" class="match--base-background"/><g clip-path="url(#match-clippath-12)"><svg x="0" y="5" class="match--player" data-participant-id="218027763"><title>Seed 5</title><defs><clipPath id="clipPath9275164"><rect x="50" y="0" width="143" height="22"/></clipPath><clipPath id="portraitClipPath9275164"><path/></clipPath></defs><path d="M 50 0 h 147 v 22 h -147 Z" class="match--player-background"/><path d="M 26 0 h 24 v 22 h -24 Z" class="match--seed-background"/><text x="38" y="14" width="10" height="12" text-anchor="middle" class="match--seed">5</text><text clip-path="url(#clipPath9275164)" x="55" y="15" width="147" height="12" text-anchor="start" class="match--player-name ">Seed 5</text></svg><svg x="0" y="28" class="match--player"><title/><defs><clipPath id="clipPath1332479"><rect x="50" y="0" width="143" height="22"/></clipPath><clipPath id="portraitClipPath1332479"><path/></clipPath></defs><path d="M 50 0 h 147 v 22 h -147 Z" class="match--player-background -empty"/><path d="M 26 0 h 24 v 22 h -24 Z" class="match--seed-background"/><text x="38" y="14" width="10" height="12" text-anchor="middle" class="match--seed"/><line x1="26" y1="-0.5" x2="226" y2="-0.5" class="match--player-divider"/></svg></g></g><g transform="translate(244 143)" class="match -pending " data-identifier="11"><defs><clipPath id="match-clippath-11"><rect x="26" y="5" width="200" height="45" rx="3" ry="3"/></clipPath></defs><text x="11" y="31" width="24" height="10" text-anchor="middle" class="match--identifier">11</text><rect x="24" y="3" width="204" height="49" rx="3" ry="3" class="match--wrapper-background "/><rect x="26" y="5" width="200" height="45" rx="3" ry="3" class="match--base-background"/><g clip-path="url(#match-clippath-11)"><svg x="0" y="5" class="match--player" data-participant-id="218027762"><title>Seed 4</title><defs><clipPath id="clipPath1667833"><rect x="50" y="0" width="143" height="22"/></clipPath><clipPath id="portraitClipPath1667833"><path/></clipPath></defs><path d="M 50 0 h 147 v 22 h -147 Z" class="match--player-background"/><path d="M 26 0 h 24 v 22 h -24 Z" class="match--seed-background"/><text x="38" y="14" width="10" height="12" text-anchor="middle" class="match--seed">4</text><text clip-path="url(#clipPath1667833)" x="55" y="15" width="147" height="12" text-anchor="start" class="match--player-name ">Seed 4</text></svg><svg x="0" y="28" class="match--player"><title/><defs><clipPath id="clipPath1561054"><rect x="50" y="0" width="143" height="22"/></clipPath><clipPath id="portraitClipPath1561054"><path/></clipPath></defs><path d="M 50 0 h 147 v 22 h -147 Z" class="match--player-background -empty"/><path d="M 26 0 h 24 v 22 h -24 Z" class="match--seed-background"/><text x="38" y="14" width="10" height="12" text-anchor="middle" class="match--seed"/><line x1="26" y1="-0.5" x2="226" y2="-0.5" class="match--player-divider"/></svg></g></g><g transform="translate(244 89)" class="match -pending " data-identifier="10"><defs><clipPath id="match-clippath-10"><rect x="26" y="5" width="200" height="45" rx="3" ry="3"/></clipPath></defs><text x="11" y="31" width="24" height="10" text-anchor="middle" class="match--identifier">10</text><rect x="24" y="3" width="204" height="49" rx="3" ry="3" class="match--wrapper-background "/><rect x="26" y="5" width="200" height="45" rx="3" ry="3" class="match--base-background"/><g clip-path="url(#match-clippath-10)"><svg x="0" y="5" class="match--player" data-participant-id="218027766"><title>Seed 8</title><defs><clipPath id="clipPath9511154"><rect x="50" y="0" width="143" height="22"/></clipPath><clipPath id="portraitClipPath9511154"><path/></clipPath></defs><path d="M 50 0 h 147 v 22 h -147 Z" class="match--player-background"/><path d="M 26 0 h 24 v 22 h -24 Z" class="match--seed-background"/><text x="38" y="14" width="10" height="12" text-anchor="middle" class="match--seed">8</text><text clip-path="url(#clipPath9511154)" x="55" y="15" width="147" height="12" text-anchor="start" class="match--player-name ">Seed 8</text></svg><svg x="0" y="28" class="match--player"><title/><defs><clipPath id="clipPath8376021"><rect x="50" y="0" width="143" height="22"/></clipPath><clipPath id="portraitClipPath8376021"><path/></clipPath></defs><path d="M 50 0 h 147 v 22 h -147 Z" class="match--player-background -empty"/><path d="M 26 0 h 24 v 22 h -24 Z" class="match--seed-background"/><text x="38" y="14" width="10" height="12" text-anchor="middle" class="match--seed"/><line x1="26" y1="-0.5" x2="226" y2="-0.5" class="match--player-divider"/></svg></g></g><g transform="translate(244 35)" class="match -pending " data-identifier="9"><defs><clipPath id="match-clippath-9"><rect x="26" y="5" width="200" height="45" rx="3" ry="3"/></clipPath></defs><text x="11" y="31" width="24" height="10" text-anchor="middle" class="match--identifier">9</text><rect x="24" y="3" width="204" height="49" rx="3" ry="3" class="match--wrapper-background "/><rect x="26" y="5" width="200" height="45" rx="3" ry="3" class="match--base-background"/><g clip-path="url(#match-clippath-9)"><svg x="0" y="5" class="match--player" data-participant-id="218027759"><title>Seed 1</title><defs><clipPath id="clipPath1013001"><rect x="50" y="0" width="143" height="22"/></clipPath><clipPath id="portraitClipPath1013001"><path/></clipPath></defs><path d="M 50 0 h 147 v 22 h -147 Z" class="match--player-background"/><path d="M 26 0 h 24 v 22 h -24 Z" class="match--seed-background"/><text x="38" y="14" width="10" height="12" text-anchor="middle" class="match--seed">1</text><text clip-path="url(#clipPath1013001)" x="55" y="15" width="147" height="12" text-anchor="start" class="match--player-name ">Seed 1</text></svg><svg x="0" y="28" class="match--player"><title/><defs><clipPath id="clipPath9620431"><rect x="50" y="0" width="143" height="22"/></clipPath><clipPath id="portraitClipPath9620431"><path/></clipPath></defs><path d="M 50 0 h 147 v 22 h -147 Z" class="match--player-background -empty"/><path d="M 26 0 h 24 v 22 h -24 Z" class="match--seed-background"/><text x="38" y="14" width="10" height="12" text-anchor="middle" class="match--seed"/><line x1="26" y1="-0.5" x2="226" y2="-0.5" class="match--player-divider"/></svg></g></g><g transform="translate(0 440)" class="match -pending " data-identifier="8"><defs><clipPath id="match-clippath-8"><rect x="26" y="5" width="200" height="45" rx="3" ry="3"/></clipPath></defs><text x="11" y="31" width="24" height="10" text-anchor="middle" class="match--identifier">8</text><rect x="24" y="3" width="204" height="49" rx="3" ry="3" class="match--wrapper-background "/><rect x="26" y="5" width="200" height="45" rx="3" ry="3" class="match--base-background"/><g clip-path="url(#match-clippath-8)"><svg x="0" y="5" class="match--player" data-participant-id="218027769"><title>Seed 11</title><defs><clipPath id="clipPath5771784"><rect x="50" y="0" width="143" height="22"/></clipPath><clipPath id="portraitClipPath5771784"><path/></clipPath></defs><path d="M 50 0 h 147 v 22 h -147 Z" class="match--player-background"/><path d="M 26 0 h 24 v 22 h -24 Z" class="match--seed-background"/><text x="38" y="14" width="10" height="12" text-anchor="middle" class="match--seed">11</text><text clip-path="url(#clipPath5771784)" x="55" y="15" width="147" height="12" text-anchor="start" class="match--player-name ">Seed 11</text></svg><svg x="0" y="28" class="match--player" data-participant-id="218027780"><title>Seed 22</title><defs><clipPath id="clipPath2324281"><rect x="50" y="0" width="143" height="22"/></clipPath><clipPath id="portraitClipPath2324281"><path/></clipPath></defs><path d="M 50 0 h 147 v 22 h -147 Z" class="match--player-background"/><path d="M 26 0 h 24 v 22 h -24 Z" class="match--seed-background"/><text x="38" y="14" width="10" height="12" text-anchor="middle" class="match--seed">22</text><text clip-path="url(#clipPath2324281)" x="55" y="15" width="147" height="12" text-anchor="start" class="match--player-name ">Seed 22</text><line x1="26" y1="-0.5" x2="226" y2="-0.5" class="match--player-divider"/></svg></g></g><g transform="translate(0 386)" class="match -pending " data-identifier="7"><defs><clipPath id="match-clippath-7"><rect x="26" y="5" width="200" height="45" rx="3" ry="3"/></clipPath></defs><text x="11" y="31" width="24" height="10" text-anchor="middle" class="match--identifier">7</text><rect x="24" y="3" width="204" height="49" rx="3" ry="3" class="match--wrapper-background "/><rect x="26" y="5" width="200" height="45" rx="3" ry="3" class="match--base-background"/><g clip-path="url(#match-clippath-7)"><svg x="0" y="5" class="match--player" data-participant-id="218027772"><title>Seed 14</title><defs><clipPath id="clipPath6578634"><rect x="50" y="0" width="143" height="22"/></clipPath><clipPath id="portraitClipPath6578634"><path/></clipPath></defs><path d="M 50 0 h 147 v 22 h -147 Z" class="match--player-background"/><path d="M 26 0 h 24 v 22 h -24 Z" class="match--seed-background"/><text x="38" y="14" width="10" height="12" text-anchor="middle" class="match--seed">14</text><text clip-path="url(#clipPath6578634)" x="55" y="15" width="147" height="12" text-anchor="start" class="match--player-name ">Seed 14</text></svg><svg x="0" y="28" class="match--player" data-participant-id="218027777"><title>Seed 19</title><defs><clipPath id="clipPath8066729"><rect x="50" y="0" width="143" height="22"/></clipPath><clipPath id="portraitClipPath8066729"><path/></clipPath></defs><path d="M 50 0 h 147 v 22 h -147 Z" class="match--player-background"/><path d="M 26 0 h 24 v 22 h -24 Z" class="match--seed-background"/><text x="38" y="14" width="10" height="12" text-anchor="middle" class="match--seed">19</text><text clip-path="url(#clipPath8066729)" x="55" y="15" width="147" height="12" text-anchor="start" class="match--player-name ">Seed 19</text><line x1="26" y1="-0.5" x2="226" y2="-0.5" class="match--player-divider"/></svg></g></g><g transform="translate(0 332)" class="match -pending " data-identifier="6"><defs><clipPath id="match-clippath-6"><rect x="26" y="5" width="200" height="45" rx="3" ry="3"/></clipPath></defs><text x="11" y="31" width="24" height="10" text-anchor="middle" class="match--identifier">6</text><rect x="24" y="3" width="204" height="49" rx="3" ry="3" class="match--wrapper-background "/><rect x="26" y="5" width="200" height="45" rx="3" ry="3" class="match--base-background"/><g clip-path="url(#match-clippath-6)"><svg x="0" y="5" class="match--player" data-participant-id="218027768"><title>Seed 10</title><defs><clipPath id="clipPath2169052"><rect x="50" y="0" width="143" height="22"/></clipPath><clipPath id="portraitClipPath2169052"><path/></clipPath></defs><path d="M 50 0 h 147 v 22 h -147 Z" class="match--player-background"/><path d="M 26 0 h 24 v 22 h -24 Z" class="match--seed-background"/><text x="38" y="14" width="10" height="12" text-anchor="middle" class="match--seed">10</text><text clip-path="url(#clipPath2169052)" x="55" y="15" width="147" height="12" text-anchor="start" class="match--player-name ">Seed 10</text></svg><svg x="0" y="28" class="match--player" data-participant-id="218027781"><title>Seed 23</title><defs><clipPath id="clipPath6944841"><rect x="50" y="0" width="143" height="22"/></clipPath><clipPath id="portraitClipPath6944841"><path/></clipPath></defs><path d="M 50 0 h 147 v 22 h -147 Z" class="match--player-background"/><path d="M 26 0 h 24 v 22 h -24 Z" class="match--seed-background"/><text x="38" y="14" width="10" height="12" text-anchor="middle" class="match--seed">23</text><text clip-path="url(#clipPath6944841)" x="55" y="15" width="147" height="12" text-anchor="start" class="match--player-name ">Seed 23</text><line x1="26" y1="-0.5" x2="226" y2="-0.5" class="match--player-divider"/></svg></g></g><g transform="translate(0 278)" class="match -pending " data-identifier="5"><defs><clipPath id="match-clippath-5"><rect x="26" y="5" width="200" height="45" rx="3" ry="3"/></clipPath></defs><text x="11" y="31" width="24" height="10" text-anchor="middle" class="match--identifier">5</text><rect x="24" y="3" width="204" height="49" rx="3" ry="3" class="match--wrapper-background "/><rect x="26" y="5" width="200" height="45" rx="3" ry="3" class="match--base-background"/><g clip-path="url(#match-clippath-5)"><svg x="0" y="5" class="match--player" data-participant-id="218027773"><title>Seed 15</title><defs><clipPath id="clipPath8423586"><rect x="50" y="0" width="143" height="22"/></clipPath><clipPath id="portraitClipPath8423586"><path/></clipPath></defs><path d="M 50 0 h 147 v 22 h -147 Z" class="match--player-background"/><path d="M 26 0 h 24 v 22 h -24 Z" class="match--seed-background"/><text x="38" y="14" width="10" height="12" text-anchor="middle" class="match--seed">15</text><text clip-path="url(#clipPath8423586)" x="55" y="15" width="147" height="12" text-anchor="start" class="match--player-name ">Seed 15</text></svg><svg x="0" y="28" class="match--player" data-participant-id="218027776"><title>Seed 18</title><defs><clipPath id="clipPath1082069"><rect x="50" y="0" width="143" height="22"/></clipPath><clipPath id="portraitClipPath1082069"><path/></clipPath></defs><path d="M 50 0 h 147 v 22 h -147 Z" class="match--player-background"/><path d="M 26 0 h 24 v 22 h -24 Z" class="match--seed-background"/><text x="38" y="14" width="10" height="12" text-anchor="middle" class="match--seed">18</text><text clip-path="url(#clipPath1082069)" x="55" y="15" width="147" height="12" text-anchor="start" class="match--player-name ">Seed 18</text><line x1="26" y1="-0.5" x2="226" y2="-0.5" class="match--player-divider"/></svg></g></g><g transform="translate(0 224)" class="match -pending " data-identifier="4"><defs><clipPath id="match-clippath-4"><rect x="26" y="5" width="200" height="45" rx="3" ry="3"/></clipPath></defs><text x="11" y="31" width="24" height="10" text-anchor="middle" class="match--identifier">4</text><rect x="24" y="3" width="204" height="49" rx="3" ry="3" class="match--wrapper-background "/><rect x="26" y="5" width="200" height="45" rx="3" ry="3" class="match--base-background"/><g clip-path="url(#match-clippath-4)"><svg x="0" y="5" class="match--player" data-participant-id="218027770"><title>Seed 12</title><defs><clipPath id="clipPath3020958"><rect x="50" y="0" width="143" height="22"/></clipPath><clipPath id="portraitClipPath3020958"><path/></clipPath></defs><path d="M 50 0 h 147 v 22 h -147 Z" class="match--player-background"/><path d="M 26 0 h 24 v 22 h -24 Z" class="match--seed-background"/><text x="38" y="14" width="10" height="12" text-anchor="middle" class="match--seed">12</text><text clip-path="url(#clipPath3020958)" x="55" y="15" width="147" height="12" text-anchor="start" class="match--player-name ">Seed 12</text></svg><svg x="0" y="28" class="match--player" data-participant-id="218027779"><title>Seed 21</title><defs><clipPath id="clipPath2447181"><rect x="50" y="0" width="143" height="22"/></clipPath><clipPath id="portraitClipPath2447181"><path/></clipPath></defs><path d="M 50 0 h 147 v 22 h -147 Z" class="match--player-background"/><path d="M 26 0 h 24 v 22 h -24 Z" class="match--seed-background"/><text x="38" y="14" width="10" height="12" text-anchor="middle" class="match--seed">21</text><text clip-path="url(#clipPath2447181)" x="55" y="15" width="147" height="12" text-anchor="start" class="match--player-name ">Seed 21</text><line x1="26" y1="-0.5" x2="226" y2="-0.5" class="match--player-divider"/></svg></g></g><g transform="translate(0 170)" class="match -pending " data-identifier="3"><defs><clipPath id="match-clippath-3"><rect x="26" y="5" width="200" height="45" rx="3" ry="3"/></clipPath></defs><text x="11" y="31" width="24" height="10" text-anchor="middle" class="match--identifier">3</text><rect x="24" y="3" width="204" height="49" rx="3" ry="3" class="match--wrapper-background "/><rect x="26" y="5" width="200" height="45" rx="3" ry="3" class="match--base-background"/><g clip-path="url(#match-clippath-3)"><svg x="0" y="5" class="match--player" data-participant-id="218027771"><title>Seed 13</title><defs><clipPath id="clipPath9144736"><rect x="50" y="0" width="143" height="22"/></clipPath><clipPath id="portraitClipPath9144736"><path/></clipPath></defs><path d="M 50 0 h 147 v 22 h -147 Z" class="match--player-background"/><path d="M 26 0 h 24 v 22 h -24 Z" class="match--seed-background"/><text x="38" y="14" width="10" height="12" text-anchor="middle" class="match--seed">13</text><text clip-path="url(#clipPath9144736)" x="55" y="15" width="147" height="12" text-anchor="start" class="match--player-name ">Seed 13</text></svg><svg x="0" y="28" class="match--player" data-participant-id="218027778"><title>Seed 20</title><defs><clipPath id="clipPath3977764"><rect x="50" y="0" width="143" height="22"/></clipPath><clipPath id="portraitClipPath3977764"><path/></clipPath></defs><path d="M 50 0 h 147 v 22 h -147 Z" class="match--player-background"/><path d="M 26 0 h 24 v 22 h -24 Z" class="match--seed-background"/><text x="38" y="14" width="10" height="12" text-anchor="middle" class="match--seed">20</text><text clip-path="url(#clipPath3977764)" x="55" y="15" width="147" height="12" text-anchor="start" class="match--player-name ">Seed 20</text><line x1="26" y1="-0.5" x2="226" y2="-0.5" class="match--player-divider"/></svg></g></g><g transform="translate(0 115)" class="match -pending " data-identifier="2"><defs><clipPath id="match-clippath-2"><rect x="26" y="5" width="200" height="45" rx="3" ry="3"/></clipPath></defs><text x="11" y="31" width="24" height="10" text-anchor="middle" class="match--identifier">2</text><rect x="24" y="3" width="204" height="49" rx="3" ry="3" class="match--wrapper-background "/><rect x="26" y="5" width="200" height="45" rx="3" ry="3" class="match--base-background"/><g clip-path="url(#match-clippath-2)"><svg x="0" y="5" class="match--player" data-participant-id="218027767"><title>Seed 9</title><defs><clipPath id="clipPath5953481"><rect x="50" y="0" width="143" height="22"/></clipPath><clipPath id="portraitClipPath5953481"><path/></clipPath></defs><path d="M 50 0 h 147 v 22 h -147 Z" class="match--player-background"/><path d="M 26 0 h 24 v 22 h -24 Z" class="match--seed-background"/><text x="38" y="14" width="10" height="12" text-anchor="middle" class="match--seed">9</text><text clip-path="url(#clipPath5953481)" x="55" y="15" width="147" height="12" text-anchor="start" class="match--player-name ">Seed 9</text></svg><svg x="0" y="28" class="match--player" data-participant-id="218027782"><title>Seed 24</title><defs><clipPath id="clipPath8797319"><rect x="50" y="0" width="143" height="22"/></clipPath><clipPath id="portraitClipPath8797319"><path/></clipPath></defs><path d="M 50 0 h 147 v 22 h -147 Z" class="match--player-background"/><path d="M 26 0 h 24 v 22 h -24 Z" class="match--seed-background"/><text x="38" y="14" width="10" height="12" text-anchor="middle" class="match--seed">24</text><text clip-path="url(#clipPath8797319)" x="55" y="15" width="147" height="12" text-anchor="start" class="match--player-name ">Seed 24</text><line x1="26" y1="-0.5" x2="226" y2="-0.5" class="match--player-divider"/></svg></g></g><g transform="translate(0 62)" class="match -pending " data-identifier="1"><defs><clipPath id="match-clippath-1"><rect x="26" y="5" width="200" height="45" rx="3" ry="3"/></clipPath></defs><text x="11" y="31" width="24" height="10" text-anchor="middle" class="match--identifier">1</text><rect x="24" y="3" width="204" height="49" rx="3" ry="3" class="match--wrapper-background "/><rect x="26" y="5" width="200" height="45" rx="3" ry="3" class="match--base-background"/><g clip-path="url(#match-clippath-1)"><svg x="0" y="5" class="match--player" data-participant-id="218027774"><title>Seed 16</title><defs><clipPath id="clipPath8414141"><rect x="50" y="0" width="143" height="22"/></clipPath><clipPath id="portraitClipPath8414141"><path/></clipPath></defs><path d="M 50 0 h 147 v 22 h -147 Z" class="match--player-background"/><path d="M 26 0 h 24 v 22 h -24 Z" class="match--seed-background"/><text x="38" y="14" width="10" height="12" text-anchor="middle" class="match--seed">16</text><text clip-path="url(#clipPath8414141)" x="55" y="15" width="147" height="12" text-anchor="start" class="match--player-name ">Seed 16</text></svg><svg x="0" y="28" class="match--player" data-participant-id="218027775"><title>Seed 17</title><defs><clipPath id="clipPath5557772"><rect x="50" y="0" width="143" height="22"/></clipPath><clipPath id="portraitClipPath5557772"><path/></clipPath></defs><path d="M 50 0 h 147 v 22 h -147 Z" class="match--player-background"/><path d="M 26 0 h 24 v 22 h -24 Z" class="match--seed-background"/><text x="38" y="14" width="10" height="12" text-anchor="middle" class="match--seed">17</text><text clip-path="url(#clipPath5557772)" x="55" y="15" width="147" height="12" text-anchor="start" class="match--player-name ">Seed 17</text><line x1="26" y1="-0.5" x2="226" y2="-0.5" class="match--player-divider"/></svg></g></g></g></svg>

  </svg>
</svg>
